<?xml version="1.0" encoding="UTF-8"?>
<svg viewBox="0 0 300 300" xmlns="http://www.w3.org/2000/svg" xmlns:xlink="http://www.w3.org/1999/xlink">
 <defs>
  <clipPath id="g">
   <path d="m653.87 832.95 99.443 202.41 707.15-144.3-12.72-249.17-793.87 191.07z"/>
  </clipPath>
  <filter id="f">
   <feGaussianBlur stdDeviation="26.13927"/>
  </filter>
  <linearGradient id="a">
   <stop stop-color="#8f5902" offset="0"/>
   <stop stop-color="#2f2000" offset="1"/>
  </linearGradient>
  <radialGradient id="d" cx="987.51" cy="916.71" r="380.56" gradientTransform="matrix(.94569 -.3117 .39224 1.19 -309.85 115.16)" gradientUnits="userSpaceOnUse">
   <stop stop-color="#e9b96e" offset="0"/>
   <stop stop-color="#e9b96e" stop-opacity="0" offset="1"/>
  </radialGradient>
  <radialGradient id="c" cx="960.27" cy="1012.3" r="439.32" gradientTransform="matrix(.8725 -.29409 .38386 1.1388 -249.36 44.579)" gradientUnits="userSpaceOnUse">
   <stop stop-color="#c17d11" offset="0"/>
   <stop stop-color="#8f5902" stop-opacity="0" offset="1"/>
  </radialGradient>
  <radialGradient id="e" cx="1045.3" cy="855.81" r="438.66" gradientTransform="matrix(1 0 0 1.4767 5.1471e-5 -401.39)" gradientUnits="userSpaceOnUse" xlink:href="#a"/>
  <radialGradient id="b" cx="1045.3" cy="855.81" r="438.66" gradientTransform="matrix(1 0 0 1.4767 0 -407.93)" gradientUnits="userSpaceOnUse" xlink:href="#a"/>
 </defs>
 <text x="332.25943" y="250.17325" fill="#0978ab" font-family="DejaVu Serif Condensed" font-size="11.633" font-style="italic" font-weight="bold">
  <tspan x="332.25943" y="250.17325" fill="#0978ab" font-size="15.51"/>
 </text>
 <g transform="matrix(.15772 0 0 .15772 -18.816 11.576)">
  <path d="m999.88 214.62c-47.385 1.2488-57.785 51.347-60.156 94-6.1609 120.25-85.081 150.78-179.09 199.72-30.807 29.675-75.52 36.201-106.59 64.344-25.576 47.789-60.007 99.526-42.656 156.25-2.3783 38.073 34.374 113.8 21.541 114.55 105.12 91.073 110.95 229.46 173.08 371.45 29.845 47.403 59.233 96.065 96.75 137.53 46.482 52.162 110.47 90.751 180.44 100.28 55.255 4.2957 101.86 25.135 141.16 57.375 17.908-25.586 36.168-76.644 77.688-93.875 51.732-30.283 95.629-76.28 119.94-131.25 31.808-43.496 38.578-97.55 49.5-148.75 4.6547-66.246 5.7473-133.54-3.0624-199.69-17.98-78.871-7.403-146.46 1.75-223.72 15.29-22.719 8.4426-69.804 3.4951-83.288 24.827-6.1552-22.658-110.17-63.058-134.37-36.505-37.555-79.892-66.552-132.59-75.594-39.379 3.3249-77.554 4.0977-115.72-0.0625-126.94 5.7-136.29-56.982-112.69-167.72 25.625-39.256-32.931-5.2973-45.031-37.156-1.5618-0.0838-3.1248-0.0631-4.6876-0.0312z" fill="url(#e)"/>
  <path d="m1451.4 788.66c-179.67-514.31-775.11-395.54-737.69 120.97 22.818 217.39 142.7 409.28 249.53 489.22 44.612 33.381 110.8 50.489 166.63 54.812 18.912 1.4646 29.43 6.4141 46.937 14.938 21.326 31.106 37.682 30.118 50.125 23.969 20.757-10.388 19.498-27.699 23.969-43.594 79.747-49.994 138.42-110.89 162.88-155.53 22.903-41.813 32.469-54.431 46.344-110.34 26.376-138.06 7.077-264.81-8.7188-394.44z" fill="#c17d11"/>
  <path d="m1451.4 788.66c-179.67-514.31-775.11-395.54-737.69 120.97 22.818 217.39 142.7 409.28 249.53 489.22 44.612 33.381 110.8 50.489 166.63 54.812 18.912 1.4646 29.43 6.4141 46.937 14.938 21.326 31.106 37.682 30.118 50.125 23.969 20.757-10.388 19.498-27.699 23.969-43.594 79.747-49.994 138.42-110.89 162.88-155.53 22.903-41.813 32.469-54.431 46.344-110.34 26.376-138.06 7.077-264.81-8.7188-394.44z" fill="url(#d)"/>
  <path d="m693.4 926.34c24.647 89.625 34.632-18.023 109.26-12.707 35.442-2.0255 50.838-33.038 89.775-40.063 34.566-3.1328 83.818-22.112 116.51-19.097 19.126 4.8134 41.636-4.893 58.99-11.885 36.238-14.6 64.469-18.21 97.274-20.758 34.766-30.608 43.281-17.759 66.331-26.3 18.24-7.9353 40.74-2.5194 65.226 0.7597 89.922-34.932 184.7 17.708 184.52-15.914-102.13-185.79-893.55-54.176-787.87 145.96z" clip-path="url(#g)" filter="url(#f)"/>
  <path d="m1001.3 209c-10.706 0.95136-13.727 10.134-35.686 13.899 4.1015 17.164-15.761 20.992-22.814 50.226-3.3974 26.491-1.1132 48.564-5.7812 70.969l-10.347 23.711c-4.118 15.5-10.134 20.923-11.435 30.789l-5.4688 18.5c-7.7804 16.038-23.902 22.173-37.44 26.697-27.348 19.412-48.742 28.89-70.404 39.772-0.51164-3.5815-87.753 50.542-87.188 54.5l-60.73 28.414-28.614 63.117c-21.941 17.409-17.325 100.83-8.7188 98.062l-3.0614 15.25 12.874 67.562c6.9097 15.725 9.6678 54.664 28.312 55.562 3.3621 17.903 1.3668 36.7 38.156 49.031 15.583-0.0245 23.506-5.1559 30.5-10.906 16.412-3.6862 32.824-6.3645 49.235-4.2978 15.161-0.8339 27.532-4.6409 37.942-9.846 10.594-14.642 25.81-19.346 47.768-28.307 21.44-5.252 39.242-9.1965 62-12.355 15.908-2.2076 34.787-14.938 54.506-9.9754 19.125 4.8134 41.636-1.6602 58.99-8.6522 36.238-14.6 64.469-18.21 97.274-20.758 14.726-1.1435 20.385-9.9739 30.7-15.097 9.1152-4.5276 22.781-5.6125 35.631-11.203 18.24-7.9353 51.624-13.391 69.572-6.8435 27.824 10.151 65.683-10.22 95.98-17.779 21.975-5.483 40.547 1.8807 54.918 4.3504 24.011 4.1264 10.697 25.982 33.36 23.107 20.878-5.299 15.444-40.681 17.438-67.562l-2.1875-15.25c27.66-21.3 22.164-47.021 6.5312-74.094 15.751-3.6896 18.281-19.675-6.5312-61.031-3.9019-10.212-4.173-17.733-7.125-25.906-14.55-40.282-32.327-45.236-45.188-50.375-23.459-10.785-41.411-51.506-65.375-47.938-22.414-19.515-46.59-28.4-71.906-30.5l-37.062 6.5312c-15.981-3.6009-31.957-12.135-47.938-2.1875-17.914-7.0239-54.596-4.6587-82.812-6.5312l-54.469-8.7188c-10.465-5.8087-1.5164-8.1684-2.5312-10.75-3.4064-8.6647-8.4628-7.4648-12.719-11.031l-1.3767-21.781-7.3421-21.812c3.8124-10.466 5.7373-34.454 9.5453-51.07 5.0713-21.695 6.2712-35.608 12.669-57.746-18.84 10.122-28.864 0.79129-39.939-7.6316-4.5748-3.4791-3.0808-8.0572-11.712-12.115z" fill="#8f5902"/>
  <path d="m1001.3 209c-10.706 0.95136-19.448 6.0481-41.406 9.8125 4.1015 17.164-10.041 25.078-17.094 54.312-3.3974 26.491-1.1132 48.564-5.7812 70.969l-15.25 19.625c-4.118 15.5-5.2305 25.009-6.5312 34.875l-5.4688 18.5c-7.7804 16.038-23.494 20.539-37.031 25.062-27.348 19.412-49.151 30.525-70.812 41.406-37.899 11.528-59.92 34.998-87.188 54.5l-56.689 25.316-32.655 66.216c-25.297 52.438-20.36 127.02 6.5312 178.69l-5.4375 2.1875c2.5247 31.057 18.638 58.958 28.312 55.562 3.3621 17.903 1.3668 36.7 38.156 49.031 15.583-0.0245 23.506-5.1559 30.5-10.906 16.412-3.6862 32.824-6.3645 49.235-4.2978 15.161-0.8339 27.532-4.6409 37.942-9.846 10.594-14.642 25.81-19.346 47.768-28.307 21.44-5.252 39.242-9.1965 62-12.355 15.908-2.2076 34.787-14.938 54.506-9.9754 19.125 4.8134 41.636-1.6602 58.99-8.6522 36.238-14.6 64.469-18.21 97.274-20.758 14.726-1.1435 20.385-9.9739 30.7-15.097 9.1152-4.5276 22.781-5.6125 35.631-11.203 18.24-7.9353 51.624-13.391 69.572-6.8435 27.824 10.151 65.683-10.22 95.98-17.779 21.975-5.483 40.547 1.8807 54.918 4.3504 24.011 4.1264 10.697 25.982 33.36 23.107 20.878-5.299 15.444-40.681 17.438-67.562l-2.1875-15.25c27.66-21.3 22.164-47.021 6.5312-74.094 15.751-3.6896 18.281-19.675-6.5312-61.031-3.9019-10.212-4.173-17.733-7.125-25.906-14.55-40.282-32.327-45.236-45.188-50.375-23.459-10.785-41.411-51.506-65.375-47.938-22.414-19.515-46.59-28.4-71.906-30.5l-37.062 6.5312c-15.981-3.6009-31.957-12.135-47.938-2.1875-17.914-7.0239-54.596-4.6587-82.812-6.5312l-54.469-8.7188c-10.465-5.8087-1.5164-8.1684-2.5312-10.75-3.4064-8.6647-8.4628-7.4648-12.719-11.031l-0.5595-21.781-8.1593-21.812c3.8124-10.466 6.4108-33.915 10.219-50.531 5.0713-21.695 9.54-41.738 15.938-63.875-18.84 10.122-26.268 2.7041-37.344-5.7188-4.5748-3.4791-9.6185-4.3798-18.25-8.4375z" fill="url(#c)"/>
  <path d="m1004.6 208.12c12.1 31.859 70.64-2.1018 45.015 37.154-10.686 46.907-19.541 95.601-6.1705 138 17.819 36.332 79.607 23.321 118.87 29.707 39.812 0.86595 76.694 2.6918 115.72 0.0747 34.103 5.851 59.73 18.169 91.274 38.18 13.358 10.889 28.446 24.153 41.329 37.406 41.404 11.359 59.186 60.246 74.939 124.22 2.2105 24.525-20.432 1.9335-2.8308 35.741 5.2027 13.058 5.3775 44.391-12.569 57.679-2.3468 38.068 0.078 75.056-18.504 89.101 10.297 44.115 12.88 90.504 16.775 134.62 8.8099 66.151 7.6963 133.45 3.0417 199.7-13.412 122.18-62.83 215.2-169.03 285.72-49.634 26.56-60.039 79.851-79.167 91.92-41.414-28.652-62.143-42.749-140.62-57.365-69.97-9.53-133.39-51.897-179.88-104.06-37.517-41.467-67.462-90.112-97.306-137.51-66.876-143.23-74.781-193.89-96.02-294.06-33.64 11.527-53.645-19.479-54.028-46.437-10.484-4.14-19.218-8.3469-24.008-30.16-7.5556-17.647-3.2718-19.428-5.1529-29.692-5.4257-29.604-18.551-59.422-15.416-85.658-17.169-56.522 17.801-108.3 43.192-156.25 31.074-28.142 75.805-34.674 106.61-64.349 43.609-22.565 88.052-46.383 131.57-68.449 28.231-35.229 41.409-86.15 47.521-131.27 2.4471-44.029 13.433-95.971 64.842-93.947zm-5.261 10.274c-44.409 2.683-35.103 50.999-46.448 84.04-5.8547 37.32 1.441 22.629 16.873 15.208-12.699 22.866-41.655 62.037-26.776 77.181 3.4438-37.278 24.772-29.228 19.028 7.7592-37.223-7.4673 25.678 20.757 12.618-19.699-18.614-19.82 59.945-3.043 18.606-26.668-8.7363-23.523 57.498-5.4765 14.19-33.306-45.322-7.6227 61.073-31.323 0.7459-27.521 22.673-16.664-6.3866-41.897 26.976-49.884-0.7728-6.3948-27.838-28.264-35.813-27.11zm17.164 49.228c26.827 31.462 6.0818-29.549 0 0zm5.2993 41.489c-46.22-5.8124 29.235 36.997 0 0zm8.7878 18.395c2.2292-0.99062-2.1995-3.906 0 0zm-15.108 42.475c6.5908 5.574 3.0663-6.1366 0 0zm-22.579 26.274c9.8017 22.592 32.552 7.3206 0 0zm61 11.528c-24.63 21.226 25.821 1.2416 0 0zm-74.398 5.9152c7.9719 8.134 11.204 39.945-3.4025 58.289 14.965-20.353-23.583-60.154-11.004-26.788-9.3403 22.157 30.232 75.359 40.658 26.175-3.4853-31.763 14.089-32.361-16.675-57.873l-9.5762 0.19696v1e-5zm-40.5 5.9571c-10.561 12.11 46.384-0.4164 0 0zm130.19-1.3767c-35.443 14.32 24.539 32.645 8.8925 50.46 11.518 19.554-1.9986 57.647 20.475 86.848-0.8175 32.414-18.561-48.247-21.668 0.72191-12.107 30.404-13.924 66.704-16.677 94.11-11.666-33.546 3.0514-64.094-33.89-46.449 23.245 24.021 11.915 85.541 5.2151 62.692-13.62 34.196-47.655 35.058-65.911 0.4283-13.406-35.317 33.331 36.84 45.343 15.551 14.356-27.061 0.018-44.284 3.5823-64.335-24.794-11.037 16.387-8.3017-11.789-29.326 30.342 18.693 13.319-13.808 11.799-26.728-13.122-24.324-23.257-17.798-12.334 10.826-16.427-0.0698-27.462-62.869-29.728-88.594-26.146 11.394-1.7144 89.333 0.14638 40.046 8.8843 20.336 18.847 75.132-2.1786 34.414-16.241-4.7845-26.753 84.109-22.946 24.263 10.508-31.127-5.6195-57.298-31.629-66.455 13.619-23.535 10.017-48.749-6.715-28.757 7.3438 16.502-25.8 81.52-13.313 27.889 25.117-36.559-34.131-56.775-49.618-15.542 32.796-7.8976-48.903 37.14-0.18027 31.965 11.91 5.8034 21.474-63.551 19.286-7.6496-1.2374 22.041-32.716 65.517-23.227 24.838-29.324-19.96-90.019 21.351-58.801 56.373 0.78123 29.774 18.914 52.13 18.344 5.4351 24.635-22.161-10.234 88.097-24.516 26.441-6.7856-41.572-25.656-67.685-16.456-85.899-36.651 23.638 7.2429-43.838 28.809-49.506 7.8686-26.391-45.008 38.293-29.667 6.2679-24.69 19.163-28.073 53.388-28.782 80.423-12.498 24.695-38.84 45.978-9.6957 5.7872 4.5649-58.116-37.039 45.569-23.174-9.1911-28.772-10.491-70.943 83.188-43.657 18.03 22.864-13.518 24.85-39.76 0.21854-9.6834-37.316 26-5.0369 67.628 12.98 62.046-16.043 36.056-7.2616 7.6749-31.677 9.5404-33.351 25.279 37.105 83.309 16.802 82.111-46.991-23.784-16.261-106.69-25.781-103.42-20.258 45.882-18.576 109.88 12.787 153.75 21.763 37.958 27.993-9.389 7.8948-20.295-21.68-59.882 54.665 32.973 21.843 38.456-5.441 26.915-41.42-24.695-20.536 18.4-22.323-5.6173 24.148 28.205 22.448 53.777 14.702 25.724 39.998 17.691 8.6848 2e-3 0.2053-26.155 33.371 31.512 18.966-9.1286-8.6812-6.5679-25.899-35.869-7.4227-32.794 15.05 9.5337 20.443 80.05 37.135 45.902-26.298-18.62-22.879-55.674 1.7546-13.687 31.591 24.229 9.4518 61.208 26.609 104.24 9.1958 27.113 38.839 96.083 33.362 104.1-15.964-50.086-44.094-95.428-49.32-148.51-2.6573-33.517-20.112-35.203-8.559-0.3042 8.0005 22.837 5.904 52.066-2.2246 10.616-4.6573-31.208-20.605-47.093-9.8008-6.1515 22.171 64.392 29.097 137.08 63.723 197.3 19.692 51.7 48.285 105.01 84.931 147.03 22.205 39.831 59.2 79.25 98.299 106.45 28.762 25.647 92.28 33.017 104.14 42.135 33.395 17.388 91.327 7.4125 122.09 37.907 31.859 50.063 45.057-25.948 68.003-41.491 14.961-10.843 64.537-41.171 23.784-27.826 48.518-35.544 95.457-82.017 119.64-140.49 14.634-35.582 37.919-65.462 40.419-104.86 3.9239-18.452 6.2576-96.3-1.8883-36.3 0.8741 26.761-14.557 97.338-28.75 97.458 3.81-21.802 11.056-28.185 11.09-45.792 15.442-65.547 18.656-134.09 10.257-200.8 1.0331-52.309-11.027-103.22-19.642-154.18 1.9061-16.045-18.91-79.884-21.157-34.927 18.334 8.2798 12.359 86.618 19.602 119.37-0.2833 55.296 22.622 110.55 8.6843 165.25-5.6818-13.566 2.0893-52.815-7.695-74.149 2.5012-56.718-8.665-99.882-13.03-153.1-13.556-31.994 5.2563-97.355-45.505-82.734-19.795 0.31434 42.912-9.8835 26.786-39.899 11.436-19.817-15.193-41.092-11.305-0.0497-1.8402 18.112-21.994-47.494-15.562-44.1-13.734-14.087 6.5783-72.878-7.3597-38.386-14.237-36.865-15.99-25.926-11.702 4.4655 17.695 13.887-4.7592 87.054-3.7553 46.198 1.8414-33.302-42.842-49.482-29.907-68.898-28.183-7.0856 11.168-47.354-11.048-56.394 0.6833-42.987-68.831-39.959-82.463-49.692 12.249-27.377-40.029-33.327-9.4897-3.2299 17.215 32.942-22.823 63.428-14.261 13.629-4.837-25.862-44.892-36.197-50.237-41.602 27.334 14.836 46.525 66.575 11.984 19.282-39.132-53.754-52.862 26.135-30.606 55.502-23.618-11.995-24.223-70.248-18.437-87.091 35.931 29.551-7.3346-40.55-32.514-37.846-2.1184-24.85 75.462 19.646 26.153-9.6344-7.824-0.37429-16.882-7.4154-24.77-2.8548zm-175.1 66.954c-3.9415 22.118-21.031 93.147-17.613 38.962 4.324-9.3883 4.6535-42.029 17.613-38.962zm226.77 27.875c3.5879 10.303 56.976 30.507 47.224 46.773 10.222 22.675 12.519 49.775 7.7089 52.685 23.611 4.0546 33.577 14.224 8.7504-11.215 12.295-2.917 82.905 22.561 71.99 31.989-34.127 11.841 40.623 57.186-12.776 30.576-8.1847-10.366 0.022-54.113-36.073-43.109 35.609 9.8416 24.623 76.363 10.788 85.792 6.8985-29.993 3.2907-72.673-32.27-80.73-21.098-24.106-29.298 37.538-34.606-10.716-14.513-21.733-20.872-41.86 5.884-12.256-2.9645 62.703 23.613-42.074-14.614-39.844-4.8127-12.547-40.585-38.04-22.007-49.946zm123.5 16.088c13.979 12.85 30.271 34.533 32.689 8.8731-6.3069 18.973 16.514 72.124-5.5943 71.085 8.6488-30.971-57.908-71.345-18.977-26.048 13.633 58.182-16.484-18.512-31.449-32.392-25.869-12.704 39.171 3.9772 3.5074-20.227 1.4316-6.3375 16.776-7.4124 19.824-1.2904zm-337.47 17.023c-6.4972 25.865 24.711 60.832-9.9023 40.563-15.269 14.008-22.406 28.292-17.927 1.3246-29.311 35.574 6.2871-45.046 16.01-10.978-2.4099-8.9547 4.4808-30.199 11.82-30.909zm-24.455 36.96c-2.8673 6.1393 7.8594-6.6587 0 0zm-11.342-30.674c-3.3153 21.49-28.09 49.009-8.1046 59.118-28.078 8.6911-45.65 47.871-44.153 56.762-18.88-34.56-19.541 33.225-20.042 46.313-12.825-28.79-38.65 50.481-21.01-0.2411-3.4601-38.972 27.297-62.2 53.237-90.24 23.465-15.623 19.414-55.524 40.072-71.712zm-70.198 6.2774c-11.23 24.39-9.0836 32.217-16.882 22.432-15.717 14.261 17.632-31.967 16.882-22.432zm388.59-2.8478c-4.2159 12.328-14.328-0.59597 0 0zm-44.46 21.987c8.877 25.028-53.092-39.556-8.528-12.528 4.8415 3.3764 9.0579 7.0029 8.528 12.528v-1e-5zm-303.28 10.021c4.0132 23.538-25.092 50.304-6.9558 6.1174-1.4803-4.3134 3.4345-8.3408 6.9558-6.1174zm-98.969 7.1027c-9.4919 24.975-33.413 92.065-18.768 27.995 2.8206-9.4332 5.0228-30.967 18.768-27.995zm14.86 1.8454c-1.5538 21.287-39.676 96.947-19.869 37.022 5.8918-9.6078 6.6085-37.273 19.869-37.022zm-79.374 1.6406c-32.462 37.375 24.629 38.221 13.868 70.821-15.248-12.752-46.753-59.424-13.868-70.821zm405.45-8.7344c0.2704 28.272 105.56 53.103 37.62 45.928-26.746-3.0315-73.05-44.947-37.62-45.928v-2e-5zm-158.7 5.7327c37.045 15.255 6.016 111.04-4.8465 62.399 1.1254-16.177-11.227-56.041 4.8465-62.399zm0.73822 25.212c-2.6446 24.513 6.0463 69.896 8.8257 18.777 1.7916-3.2633-5.81-35.452-8.8257-18.777zm-161.76 34.689c-4.6584 50.032-15.476-48.094 2.9465-48.364-8.2134 16.823 22.444 53.638-2.9465 48.364zm137.82-51.095c14.072 17.024 12.31 94.845-0.14577 38.238-0.65017-8.4389-16.101-39.019 0.14577-38.238zm39.662 6.572c6.2556-5.9113 7.6649 7.168 0 0zm108.64 4.7203c11.295 21.429-5.6206 80.796-5.2093 24.245-0.6324-5.7459-8.9204-30.105 5.2093-24.245zm-181.51 6.0442c21.673 19.917-3.4327 51.976-3.6188 9.5172-7.1122-3.4458-2.082-14.004 3.6188-9.5172zm-143.29 79.861c9.9716 33.56 57.471 50.165 29.579 86.443 2.3573-20.909-22.01-83.222-33.393-43.366-9.8235-22.953-17.639-42.551-17.444-4.0341-12.262-23.336-8.1798-83.444 6.3355-108.63l2.6527 0.53632c-4.0602 9.3501-0.56723 79.817 12.269 69.048zm166.55-70.44c24.4 24.422-22.333 88.182-4.8537 25.479 3.4367-5.7761-9.8879-31.161 4.8537-25.479zm60.203-0.59008c29.113 43.698-13.644 20.031 0 0zm236.57 3.0025c22.353 21.391 26.065 73.23 7.5813 23.005-4.3964-3.5551-36.314-36.782-7.5813-23.005zm-100.71 2.968c16.142 39.072 15.798 15.691 33.075 3.8508 13.171 24.435-3.3977 73.995-21.484 61.023-8.8827 40.718-25.242-38.993 2.2185-16.747 4.002-7.3556-41.064-59.632-13.809-48.127zm202.64 2.9825c29.549 4.54 38.872 85.542 18.51 25.985-0.9507-6.1808-51.82-38.456-18.51-25.985zm-147.33 9.5623c18.074 24.084-8.8924 40.637-6.896 0.91357-0.8083-4.1318 7.0808-7.2513 6.896-0.91357zm-332.97 18.374c10.122 20.471-0.32498 86.696-6.0951 30.343 2.4409-5.8337-7.3621-34.186 6.0951-30.343zm140.21 6.0199c30.077 31.867-45.778-7.3535 0 0zm-256.73 6.0709c4.2586 22.878-15.836 92.795-9.698 28.525 0.76074-6.4708-3.4759-34.052 9.698-28.525zm471.54-1.2173c0.4904 14.3-7.8052-9.6675 0 0zm88.722-2.4133c15.875 9.9424 66.697 24.952 48.034 44.241-12.463-36.079-54.778-7.0258-56.655-44.817l8.6217 0.5768v3e-5zm-286.13 7.8122c8.1055 40.289-66.105-0.41065-12.6 12.104 5.7218 5.6546 5.12-14.912 12.6-12.104zm323.21-1.5356c22.207 9.4417 53.54 46.101 10.512 14.531-6.4299 0.0685-28.941-27.69-10.512-14.531zm-129.21 3.1114c16.519 16.476 49.853 30.156 26.873 42.547 0.4345 19.791-21.282 82.106-13.112 28.173 20.631-26.778-31.574-68.686-13.761-70.72zm-323.81 7.2187c15.373 10.762 42.901 51.572 21.634 56.892 10.849-39.314-31.781-42.214-23.417-15.936 15.181-34.725 15.397 76.436-2.1449 26.214-2.6708 32.821-19.44 61.659-1.0778 92.029-10.309-39.299-59.774-20.847-63.916-65.257 10.966 16.705 47.038 52.239 52.857 0.79225-3.2799-34.098 0.76994-67.608 10.728-93.682l1.9382-3.7177 3.3981 2.6658 3e-5 -2e-5zm150.25 1.6723c5.9764 24.489-11.898 65.704-8.2741 15.46-2.3936-2.902 0.0278-26.25 8.2741-15.46zm148.85-0.6192c16.224 29.814-24.179-12.525 0 2e-5v-2e-5zm-124.05 5.5185c-0.1631 31.317-15.989 43.104-9.3124 2.2624 0.6013-3.9083 7.6458-7.5968 9.3124-2.2624zm-339.88 10.574c12.707 25.52-19.041 66.864-7.3096 12.718-0.15461-3.7653 0.57319-15.759 7.3096-12.718zm355.83-5.1546c20.46 2.2676 18.582 46.567 46.786 49.111 17.703 27.925-22.986 76.141 28.293 56.988 23.279-8.5279 59.052-13.631 17.978 6.5347-34.937-0.72256-82.164 26.794-109.6 12.726 28.592-3.2768 69.942-10.374 58.718-47.343 9.6591-22.576-47.649-57.074-17.318-21.065-4.8097 17.818 11.134 76.007-7.9626 27.736-4.5659-6.1181-23.284 19.28-15.272-15.759-1.7061-23.401 20.672-1.9789 4.3301-33.127 9.3377-9.7365-27.107-46.952-5.9547-35.801zm-145.51 4.4776c-7.7738 42.336 49.741 68.288 38.25 93.319 16.318 26.005 2.9928 43.394-6.3158 5.1788-2.6489-33.693-22.629-34.872-7.9082-2.7535-2.3293 6.2351-37.833 53.216 7.0175 38.288 6.1807 22.383-61.095-6.4611-32.212 34.407 3.7276 53.004 29.857 121.13 35.991 160.11-18.12-57.002-38.886-114.18-45.424-174.12-26.018-5.5187-54.298-89.069-24.889-39.147 23.07 44.839 50.899 12.683 42.382-28.105 18.492-20.266-32.858-66.61-6.8923-87.183zm272.66-5.7491c23.966 13.708 16.935 60.355 0.2447 17.149-10.984-2.4842-17.768-23.376-0.2447-17.149zm-198.2 7.2862c28.866 12.432 11.565 63.157 39.951 78.46 4.4992 21.826 38.49 18.643 35.014 20.094-26.826 37.943-62.199-38.307-62.172-65.124-11.804-36.719-32.191 71.381-29.8 23.042 5.4376-12.009-10.523-37.03 7.2701-28.023 18.216-28.784-36.965-9.9675 9.7378-28.45zm152.33-0.4328c6.8889 32.187-43.285 66.032-19.066 20.807 10.985 3.0666 1.1754-35.49 19.066-20.807zm169.6-4.6695c14.017 38.319-20.897-4.2492 0 0zm-650.35 19.339c0.96553 40.758-12.964 13.992 0 0zm667.77-6.8116c23.999 20.42-22.346 73.707-4.0635 24.468-1.5724-5.7305-8.6018-25.462 4.0635-24.468zm31.61 8.1495c-16.009 71.87-6.4436-36.091 0 0zm-95.639-1.2217c21.066 11.704 73.048 80.665 24.43 33.438-26.102-25.584-21.946-18.424-34.72 7.6614 5.3814-6.6475-7.3377-52.934 10.29-41.099zm-22.539 0.33947c11.02 30.611-21.909 65.316 29.986 47.417 17.342-13.523 45.062 16.909 8.7798 3.1323-34.177 4.2472-60.928 11.375-84.634 19.256-26.778-16.11 47.36-3.4099 38.422-34.512 14.012-9.9501-7.2825-34.2 7.4459-35.293zm-94.165 10.344c16.157 23.065-24.103-5.0868 0 0zm-479.55 14.6c7.9869 23.19-21.89-10.265 0 0zm706.28-17.005c26.19 23.216-18.584 11.517 0 0zm-601.27 19.085c16.382 39.805 2.0687 54.077-16.205 79.951 23.08 56.16 51.508 12.887 54.847-12.27-10.03 25.077 13.197 30.484 7.2969 47.842-18.313-25.989-8.265 31.603-37.443 11.22-22.681-23.308-43.399-32.496-62.828-55.164 50.125 39.487 41.884-48.632 43.748-68.199 5.4481 2.7534 4.7859-12.957 10.584-3.3814zm-8.088 104.85c-1.1589-11.787-7.6066 1.2484 0 0zm391.22-102.95c16.204 6.6369 56.238 38.838 13.174 19.968-13.36-34.457-32.087 55.957-22.438-0.58411-4.7011-5.7122 1.6481-27.863 9.2649-19.384zm-27.551 0.83588c15.375 21.274-13.419 54.553-5.7619 9.7714-4.0913-4.1511 0.2544-11.35 5.7619-9.7714zm244.56-2.7565c6.4074 44.806-35.086-1.2895 0 0zm-27.874 5.3886c20.119 23.796-32.16 32.237-10.824 6.5379 1.4086-2.6649-0.6967-24.414 10.824-6.5379zm-372.57 25.671c20.615 19.494 9.7949 66.99-1.3902 16.472-1.5472-4.4166-10.51-19.825 1.3902-16.472zm399.29 1.6276c5.1616 20.598-7.3225 2.7414 0 0zm-192.6 7.8383c43.146 21.342-18.955 6.8016 0 0zm-178.79 5.0158c27.027 31.961-7.7642 27.146-2.2412-1.15l2.2412 1.15 2e-5 -1e-5zm404.11 3e-3c16.089 29.012 1.3373 58.519 0 0zm-24.432 28.309c-5.1292 9.2529-4.303-27.692 0 0zm-548.19 5.562c37.024 46.9-14.444 23.367 0 0zm195.6 0.45892c22.188 33.507-24.826-11.817 0 0zm-34.016 2.5323c48.293 3.0755-51.262 22.776 0 0zm-33.043 8.1076c23.915 29.983-25.731-5.9046 0 0zm420.09-9.925c7.7516 26.88-8.8152-2.619 0 0zm-502.93 27.932c13.231 11.965-65.331 33.373-20.612 2.5042 6.8708-3.4919 13.742-5.5041 20.612-2.5042l1e-5 -2e-5zm58.61 6.3075c11.951 29.66 15.489 71.28 20.586 97.106-6.2056-29.855-24.978-72.076-20.586-97.106zm481.42-9.1952c4.5077 6.9283 7.0286 27.749 1.6168 20.785l-2.1969-21.365 0.5801 0.58057v-1e-5zm-532.55 20.831c8.9783 59.162 28.111 116.72 41.961 174.22-19.81-57.594-38.908-116.77-46.865-177.57 2.0743-1.9618 3.9115-2.264 4.9043 3.3444v-3e-5zm-55.379 3.6176c27.262 18.929-43.605 6.4643-15.485 39.099 10.241 25.591 15.896 78.721 1.5633 23.276-8.5592-23.41-0.63723-54.008-31.137-47.148 17.425-4.9012 36.278-8.3339 45.058-15.227zm557.42-7.1942c5.7125 15.457 1.2341 61.408 0.053 15.208 2.5164 3.1185-4.8983-22.608-0.053-15.208zm-488.19 165.52c7.6486 26.237 24.573 81.171 2.8451 22.936-16.79-56.942-40.619-123.97-44.522-172.92 4.086-5.3119 5.1629 0.66893 5.1629 0.66893 2.4827 40.431 21.573 102.64 36.514 149.31zm-107.46-125.92c19.415 88.864 52.55 173.69 83.27 259.06 13.991 50.895-21.554-41.811-25.606-56.376-19.912-56.096-40.686-112.09-56.714-169.2 1.0942-5.9362-12.346-35.014-0.95028-33.481zm631.84-15.751c-3.7539 3.6805-2.6546-3.6389 0 0zm-0.5249 3.121c6.0009 31.31-5.6993 13.498 0-1e-5v1e-5zm-32.031 15.033c-1.1666 12.723-1.6526-10.881 0 0zm-546.14 23.042c17.383 80.825 41.952 159.35 76.367 234.44-22.474-34.101-40.412-90.784-55.366-135.13-5.6001-23.92-32.142-99.723-21.002-99.305zm579.84-14.084c3.8739 22.376-2.9412 77.694-2.0193 25.256 1.0144-1.3569-1.5011-33.531 2.0193-25.256zm-597.77 49.15c14.203 26.786 1.5758 35.889 0 0zm-55.463 8.0834c-1.1175 3.6852-2.5546-3.4995 0 0zm301.74 134.24c-19.906-31.767-37.644-91.783-46.122-133.64 13.524 1.9669 32.563 90.454 46.122 133.64zm-298.52-125.42c10.27 21.173 42.76 92.252 26.845 92.01-5.0628-29.195-23.815-73.005-26.845-92.01zm650.97-8.7132c6.163 23.35-1.4687 60.443-1.0162 11.783 3.9593 1.0895-5.8719-16.097 1.0162-11.783zm-578.86 50.522c14.163 61.615 49.707 114.58 69.291 174.46-20.673-27.811-34.944-83.029-55.045-120.07-6.9316-14.942-40.437-123.73-14.246-54.388zm602.67-14.336c-0.7598 21.591-4.485-11.48 0 0zm-518.47 38.487c30.556 81.439-61.149-132.06 2e-5 -1e-4l-2e-5 1e-4zm501.05 1.6744c4.9136 15.332-5.2042 116.89-7.0561 64.14 4.9826-16.252-6.1659-59.426 7.0561-64.14zm-401.74 13.522c10.525 20.23 37.715 126.24 28.195 92.78-9.9968-25.055-35.845-81.724-28.195-92.78zm-90.612 10.865c10.313 29.455-8.5727-14.083 0 0zm514.38-6.6452c14.696 1.7871-15.364 120.47-5.3905 43.488 10.056-32.823-12.261-16.591 2.7723-49.674l2.6182 6.1864zm-640.83 19.955c2.9928 14.074-8.1068-11.889 0 0zm131.14 0.1152c-3.0144 3.7031-2.023-4.9863 0 0zm-23.868 6.9747c5.0967 16.316-8.7076-8.0503 0 0zm-103.26 2.1357c7.1216 18.792-1.9142 3.3772 0 0zm107.56 9.7605c13.085 29.56-6.011 6.0962 0 0zm-101.55 6.5435c6.6688 24.779-7.8281-15.761 0 0zm624.02-15.424c-4.5447 11.435-0.1518-8.7637 0 0zm-428.05 10.38c9.7872 24.808 52.742 133.58 38.609 113.6-13.377-34.914-39.313-82.446-38.609-113.6zm57.641 7.5669c14.249 21-9.4863-0.7399 0 0zm-248.17 10.876c17.661 34.242 6.0993-9.0683 3e-5 0h-3e-5zm102.79-0.5373c7.0186 16.329-4.5418 3.6861 0 0zm475.07 6.0746c-3.7271-21.488 4.1943-20.846 0 0zm1.1039 2.9516c2.6635 19.731-8.1382-1.1751 0 0zm20.642 2.1454c-0.5924 23.762-9.3885-0.9103 0 0zm-488.42 12.06c5.3851 17.833-6.7285-7.5563 0 0zm437.64 0.5832c-3.7401 42.831-4.6309-33.488 0 1e-4v-1e-4zm-537.98 4.4187c10.645 14.933 35.256 63.369 8.2212 20.792 0.22987-0.8568-19.106-30.798-8.2212-20.792zm567.76-8.5095c0.4284 22.163-28.336 91.265-10.102 31.777 4.0021-9.0294 3.059-26.772 10.102-31.777zm18.537 8.664c0.6681 33.7-10.321 7.4788 0 0zm-503.77 14.664c12.036 4.8281 1.1634 24.931 0 0zm551.43-3.2252c-4.6358 12.592-4.2711-7.5363 0 0zm-98.683 1.2424c4.6701 10.029-9.6693 5.217 0 0zm-1.0559 10.429c-5.9365 28.815-4.4345-12.688 0 0zm49.07 1.9729c0.017 25.233-34.536 83.432-11.317 27.139 2.1353-5.7126 5.2022-28.787 11.317-27.139zm23.315 2.06c6.032 22.691-48.873 105.32-15.734 44.278 4.0102-14.319 12.077-34.042 15.734-44.278zm-525.54 23.071c13.276 20.446 32.346 64.195 5.5255 18.063 2.6145 0.9027-18.741-29.101-5.5255-18.063zm143.37 25.615c-1.1175 3.6852-2.5546-3.4995 0 0zm306.06 0.4266c-4.519 5.8541 0.7221-7.0436 0 0zm-2.8298 5.0066c-6.2602 20.259-68.807 103.68-34.27 48.134 10.733-15.64 19.253-38.874 34.27-48.134zm34.139 5.141c-5.9049 28.362-80.379 110.03-73.534 89.749 28.964-26.135 50.277-63.196 73.534-89.749zm-94.676 14.117c-2.3313 21.189-32.839 87.966-15.931 29.826 3.1085-7.5203 9.9158-30.492 15.931-29.826zm-360.31 31.952c38.48 43.573 90.556 74.229 142.46 96.788 33.396 22.474-52.282-15.188-64.467-24.455-26.111-18.993-72.279-48.291-77.993-72.332zm451.41 10.834c-6.605 14.765-6.1778-3.9775 0 0zm-9.7561 10.467c-5.568 5.6789 0.9461-7.0324 0 0zm-359.85 9.6985c29.308 36.164 95.086 55.714 120.12 76.182-49.64-8.5024-87.1-43.458-123.1-75.575l0.22046-1.106 2.7634 0.4993h3e-5zm34.781 2.4121c21.025 16.467 30.929 41.553 4.7882 8.0618-2.8443 6.7521-15.194-17.334-4.7882-8.0618zm321.21-7.2612c-11.777 17.987-50.206 59.068-64.881 58.688 24.098-16.133 41.044-44.042 64.881-58.688zm-291.19 36.019c23.546 13.836 74.203 38.472 18.368 18.89-4.3729 1.9947-36.95-23.36-18.368-18.89zm-38.638-934.1c-11.038 20.07 38.898-10.492 0 0zm173.97-1.3955c14.947 9.1675 44.266-3.6156 0 0zm-296.27 14.276c-0.0934 20.471-44.277 24.759-4.569 15.622 52.971-22.851 17.942-11.15 11.237-17.55 7.4215-9.1729-8.8607-3.9528-6.6684 1.9283zm274.43-2.8494c16.854 16.144-29.382 1.5169 1.8072 11.855 20.21 8.4526 57.813-5.1124 23.872-7.0467-3.3692 12.633-38.804-28.36-25.68-4.8087zm74.484 1.6338c2.9272 1.8329 2.2468-3.4922 0 0zm21.306 4.6339c14.235 14.507 72.871 29.857 26.898 2.1029-0.046 13.072-43.681-20.499-26.898-2.1029zm-121.25-1.03c14.794 15.198 16.201 1.5277 0 0zm-219.85 8.8437c-25.302-2.9372-36.437 24.616-16.872 29.608-5.493-33.721 13.469-6.0139 20.697-31.043l-3.8246 1.4345h3e-5zm380.61-7.1081c12.527 4.6548-7.1754-8.8793 0 0zm-81.773 3.5473c4.2388 14.446 26.465-4.0934 0 0zm-89.35 0.61789c-8.7486-5.5865-4.473 6.419 0 0zm-26.476 1.2777c-1.4926 18.336 17.501 29.136 33.092 13.853-24.292 4.6952-22.931-18.724-23.628-15.391l-9.4644 1.5374zm-79.316 12.777c-4.1474 23.967 21.962 28.556 24.271 9.6479 50.765 40.297-18.945-51.453-24.271-9.6479zm221.6-10.433c3.4269 18.107 11.69-12.885 0 0zm-243.74 10.534c-3.66 42.511 45.028 9.7428 2.0261-5.5636l-2.0261 5.5636v1e-5zm148.09-3.6652c16.92 16.763 25.603-14.059 0 0zm59.745-0.73281c-1.4227 22.297-52.517-13.707-16.933 15.862 12.786 26.936 25.595 43.12 61.678 48.383 61.647 40.146-4.454-70.536-44.746-64.245zm27.808 14.025c23.206 11.072 28.256 66.503 10.675 23.402-24.42-13.695-13.526-11.486-17.717-25.231l7.0421 1.8292-1e-4 1e-5zm95.346-4.2974c-2.9634 25.124 41.59 64.014 43.213 33.04 5.6201-18.015-43.162-58.42-20.164-11.557-1.6517 34.365-22.768-56.084-23.049-21.483zm-489.95 8.1129c-14.371 3.4492-44.411 58.613-29.275 16.189-25.982 4.5971-14.233 37.573-39.263 28.074-21.128 9.4649-18.053 32.077-13.874 44.468 22.961-27.127 42.402-37.265 64.057-57.788 10.269-5.6332 41.492-45.412 18.355-30.942zm473.63-12.974c8.11 25.055 14.825-7.8742 0 0zm-27.7 6.3002c11.06 26.803 37.457-7.8873 0 0zm-28.096-2.1137c32.195 18.3 31.536 83.664 46.041 94.925-12.633 9.7318 49.603 44.425 38.894 51.873 6.8306 11.417 42.065 45.076 63.488 65.153-1.3134 21.105-41.885-44.748-20.332 1.6609 35.913 46.872 30.797-44.607 3.4838-60-31.624-12.533 13.378-7.5959-8.4431-33.348 12.212-26.445-38.215-89.349-15.701-37.03 12.195 29.117-14.331 58.848-9.2181 12.449 3.7828-28.185-45.69-77.609-16.048-24.599 15.441 40.53-34.171-49.644-15.516-4.4936-24.247-6.1026-60.494-56.797-7.0569-28.872-5.4577-10.004-50.239-37.297-59.592-37.719zm60.115 94.637c24.677 4.5146 47.676 51.078 9.5712 14.772-2.3785-1.1559-28.355-17.41-9.5712-14.772zm46.547 34.95c8.2109 36.248-18.167 10.587 0 0zm-7.751 2.1038c-6.9125 21.809-21.062-3.9637 0 0zm-427.6-122.21c-20.377 28.637-5.2124 62.365 4.833 12.696 5.7386-2.4055 2.7791-20.902-4.833-12.696zm254.58 1.748c5.1514 11.493 1.088-9.1024 0 0zm-246.18 16.621c-19.21 33.965 5.8538 27.836 5.5193-3.3777 6.9591-5.431-8.7016-16.409-5.5193 3.3777zm221.78-10.694c14.063 3.3622 7.6167-6.5413 0 0zm-185.85 18.465c-7.4917 25.663 28.724 54.737 17.682 12.583 3.5248-12.412-4.6627-27.804-17.682-12.583zm37.18-3.2424c-28.5 17.353 5.3011 96.253 23.992 93.06-11.402-24.411 2.2205-79.118 5.42-22.012 23.865 24.687-2.7269-67.092 24.572-33.492 0.8047-26.696-29.894-43.281-53.984-37.557zm-98.643 9.2832c5.9925-1.9503-3.726-8.373 0 0zm3.0905 9.9783c-7.016-6.3573-3.6609 9.6192 0 0zm477.57-8.6302c9.4526 29.702 2.5956 62.18 46.367 62.435-22.731 18.424 12.638 79.284 10.414 33.424-8.3917-27.581-10.598-57.511-25.43-77.046 9.0002 50.314-11.145-10.943-23.976-12.515 3.3908-4.1151-4.6162-12.833-7.3743-6.2977zm-665.54 17.074c-2.9656 4.7395 7.3475-5.5206 0 0zm587.53-11.364c10.91-0.23237-5.3478-6.3969 0 0zm-598.62 21.062c-17.088 15.392 19.729-12.365 0 0zm-24.323 16.1c-35.832 23.391-7.6311 14.046 6.2474-3.9277l-6.2474 3.9277zm-23.501 4.0773c-22.637 16.006-36.823 43.252-5.4079 10.976 4.1929-0.77834 20.531-21.698 5.4079-10.976zm720.68-12.205c5.4741 12.572 5.5856-3.6095 0 0zm-699.64 23.14c-48.973 30.462 22.718-3.3091 0 0zm714.24 0.49878c3.0572 13.727 7.8-4.1591 0 0zm-14.272 7.9552c10.292 46.999 10.581-20.17 0 2e-5v-2e-5zm-92.969 6.3473c-20.903 29.771 40.411 53.285 9.9644 9.9072-9.0567-5.8697-6.0695-31.922-9.9644-9.9072zm121.51-3.6644c-4.4914 24.841 25.253-7.2228 0 0zm-3.7351 19.972c5.0109 24.418 13.228-2.4546 0 0zm41.134 10.553c7.7203 50.766 0.8354-42.637 0 0zm-62.561 3.2624c14.586 19.808 26.338 40.678 17.786 6.5864-5.2147-1.1586-11.708-10.488-17.786-6.5864zm-93.464 15.079c6.5852 14.595 33.569 45.147 12.998 5.5166-6.4068-8.7697-7.4168-17.918-12.998-5.5166zm128.16 0.91192c5.0524 16.226 3.6766-18.705 0 0zm-78.188 14.332c11.043 14.516 5.5049-7.2386 0 0zm88.426 9.7902c-3.8456 21.496-17.013-27.809-9.76 10.374 4.3875 28.209 31.767 61.145 33.776 10.482 3.707-58.715-20.11 64.597-10.455-1.7952 1.2661-3.4375-12.911-41.476-13.561-19.062zm-84.83 22.63c14.76 27.729 0.7505-17.66 0 0zm19.458 0.0753c20.424 25.18 3.4954 77.969 0.5457 78.765 35.177 4.6239 22.564-56.571 7.1947-66.969-3.0371-2.0055-2.9594-14.616-7.7404-11.796zm53.976 18.343c-29.95-6.7592-0.8874 26.305 1.5874 41.962 2.6302-10.951 12.295-39.369-1.5874-41.962zm-28.646 20.974c1.7249-1.043-1.7607-5.4646 0 0zm41.053 6.9748c-17.642 19.211 6.3078 58.867 3.0518 15.178-3.7295 5.5455 3.6909-24.909-3.0518-15.178zm-28.111 24.012c10.961 25.649 39.05 19.968 6.8865-0.50004 5.0191 1.2795-13.571-3.0319-6.8865 0.50004zm-9.6261 18.563c-1.4453 18.346 25.745 112.92 13.934 47.664-4.3407-10.991 2.6392-55.606-13.934-47.664zm23.462 10.299c5.3405 23.66 18.346 101.59 10.579 32.567-1.0766-5.9426-7.0439-40.095-10.579-32.567zm-5.3169 77.586c2.8553 25.327 17.913 117.96 10.641 44.762-0.27-8.2491-7.745-69.895-10.641-44.762zm23.974 34.375c2.9064 51.978 6.4576 104.36 9.0002 156.46-5.2017 24.669-5.5844 116.37-3.8691 105.73 11.548-48.58 5.2196-99.8 6.0721-149.51-1.8219-37.361-5.605-96.847-10.975-121.93l-0.2281 9.2567v-3e-5zm-11.352 72c-2.5253 31.273 5.9078 42.329 3.789 4.6684 1.3545-17.388-6.0873-32.235-3.789-4.6684zm3.7659 69.341c1.7248-1.0429-1.7603-5.4645 0 0zm0.1434 36.853c6.7332 0.5519-2.7561-7.8147 0 0zm6.2591 111.26c4.0568 3.8019 3.3327-12.998 0 0zm-4.0348 9.9201c-26.013 61.292-51.088 126.12-98.231 174.81 33.605-15.718 55.931-71.716 76.747-108.05 11.666-14.862 28.01-67.061 21.483-66.759zm-395.29 249.23c8.0599 9.4032 16.958 1.782 0 0z" fill="url(#b)"/>
 </g>
</svg>
